<svg width="41" height="43" viewBox="0 0 41 43" fill="none" xmlns="http://www.w3.org/2000/svg">
<path d="M26.2257 25.8838L41.0001 0H31.0997L16.2872 25.8743C16.2686 25.8972 16.2585 25.9258 16.2585 25.9552C16.2585 25.9847 16.2686 26.0133 16.2872 26.0362L25.7021 42.5812C25.7402 42.6479 25.7782 42.6479 25.8544 42.6479H35.6691L26.2161 26.0171C26.2084 25.9955 26.2052 25.9724 26.2069 25.9495C26.2085 25.9265 26.2149 25.9042 26.2257 25.8838ZM17.4771 17.5351L11.8701 7.71089C11.8514 7.67786 11.8233 7.65116 11.7894 7.6342C11.7555 7.61724 11.7173 7.61079 11.6797 7.61569H2.54085L8.1479 17.5542C8.16033 17.5775 8.16372 17.6046 8.15742 17.6303L0.446533 30.4628H9.66152C9.69274 30.4667 9.72441 30.4605 9.75184 30.4451C9.77927 30.4297 9.80101 30.4058 9.81384 30.3771L17.4771 17.6494C17.4866 17.6119 17.4866 17.5726 17.4771 17.5351Z" fill="black"/>
</svg>
